<svg xmlns="http://www.w3.org/2000/svg" xmlns:xlink="http://www.w3.org/1999/xlink" width="1080" zoomAndPan="magnify" viewBox="0 0 810 1012.49997" height="1350" preserveAspectRatio="xMidYMid meet" version="1.0"><defs><g/><clipPath id="d0bd0c8c12"><path d="M 0.199219 0 L 809.800781 0 L 809.800781 1012 L 0.199219 1012 Z M 0.199219 0 " clip-rule="nonzero"/></clipPath><clipPath id="152c89ee7e"><path d="M 18 0.519531 L 654.898438 0.519531 L 654.898438 124 L 18 124 Z M 18 0.519531 " clip-rule="nonzero"/></clipPath><clipPath id="5aff7a6b74"><rect x="0" width="637" y="0" height="124"/></clipPath><clipPath id="4d959979ef"><path d="M 0.261719 142 L 599 142 L 599 890.71875 L 0.261719 890.71875 Z M 0.261719 142 " clip-rule="nonzero"/></clipPath><clipPath id="16836978f5"><rect x="0" width="599" y="0" height="749"/></clipPath><clipPath id="c3c4bf62b3"><rect x="0" width="655" y="0" height="891"/></clipPath></defs><g clip-path="url(#d0bd0c8c12)"><path fill="#ffffff" d="M 0.199219 0 L 809.800781 0 L 809.800781 1012 L 0.199219 1012 Z M 0.199219 0 " fill-opacity="1" fill-rule="nonzero"/><path fill="#000000" d="M 0.199219 0 L 809.800781 0 L 809.800781 1012 L 0.199219 1012 Z M 0.199219 0 " fill-opacity="1" fill-rule="nonzero"/></g><g transform="matrix(1, 0, 0, 1, 34, 82)"><g clip-path="url(#c3c4bf62b3)"><g clip-path="url(#152c89ee7e)"><g transform="matrix(1, 0, 0, 1, 18, 0)"><g clip-path="url(#5aff7a6b74)"><g fill="#f8733d" fill-opacity="1"><g transform="translate(0.748919, 95.490533)"><g><path d="M 15.703125 -39.046875 L 26.40625 0 L 36.1875 0 L 36.1875 -74.9375 L 26.09375 -74.9375 L 26.09375 -32.421875 L 25.484375 -32.421875 L 24.578125 -35.890625 L 13.859375 -74.9375 L 4.078125 -74.9375 L 4.078125 0 L 14.171875 0 L 14.171875 -42.515625 L 14.78125 -42.515625 Z M 15.703125 -39.046875 "/></g></g></g><g fill="#f8733d" fill-opacity="1"><g transform="translate(49.178472, 95.490533)"><g><path d="M 30.171875 -90.734375 L 19.46875 -90.734375 L 14.171875 -81.5625 L 22.125 -81.5625 Z M 32.734375 -15.390625 L 32.734375 -59.546875 C 32.585938 -62.597656 31.972656 -65.28125 30.890625 -67.59375 C 30.410156 -68.613281 29.8125 -69.613281 29.09375 -70.59375 C 28.382812 -71.582031 27.519531 -72.453125 26.5 -73.203125 C 25.488281 -73.953125 24.285156 -74.5625 22.890625 -75.03125 C 21.492188 -75.507812 19.878906 -75.75 18.046875 -75.75 C 16.210938 -75.75 14.582031 -75.507812 13.15625 -75.03125 C 11.726562 -74.5625 10.503906 -73.953125 9.484375 -73.203125 C 8.460938 -72.453125 7.609375 -71.582031 6.921875 -70.59375 C 6.242188 -69.613281 5.671875 -68.613281 5.203125 -67.59375 C 4.109375 -65.28125 3.492188 -62.597656 3.359375 -59.546875 L 3.359375 -15.390625 C 3.492188 -12.265625 4.109375 -9.546875 5.203125 -7.234375 C 5.671875 -6.210938 6.242188 -5.226562 6.921875 -4.28125 C 7.609375 -3.332031 8.460938 -2.484375 9.484375 -1.734375 C 11.585938 -0.0351562 14.441406 0.8125 18.046875 0.8125 C 21.578125 0.8125 24.394531 -0.0351562 26.5 -1.734375 C 27.519531 -2.484375 28.382812 -3.332031 29.09375 -4.28125 C 29.8125 -5.226562 30.410156 -6.210938 30.890625 -7.234375 C 31.972656 -9.546875 32.585938 -12.265625 32.734375 -15.390625 Z M 21.71875 -59.546875 L 21.71875 -15.390625 C 21.71875 -14.171875 21.582031 -13.253906 21.3125 -12.640625 C 21.101562 -11.890625 20.742188 -11.242188 20.234375 -10.703125 C 19.722656 -10.160156 18.992188 -9.890625 18.046875 -9.890625 C 17.160156 -9.890625 16.445312 -10.160156 15.90625 -10.703125 C 14.882812 -11.859375 14.375 -13.421875 14.375 -15.390625 L 14.375 -59.546875 C 14.375 -60.628906 14.507812 -61.546875 14.78125 -62.296875 C 14.988281 -62.972656 15.347656 -63.597656 15.859375 -64.171875 C 16.367188 -64.753906 17.097656 -65.046875 18.046875 -65.046875 C 18.992188 -65.046875 19.738281 -64.773438 20.28125 -64.234375 C 21.238281 -63.078125 21.71875 -61.515625 21.71875 -59.546875 Z M 21.71875 -59.546875 "/></g></g></g><g fill="#f8733d" fill-opacity="1"><g transform="translate(93.427807, 95.490533)"><g><path d="M 22.328125 -54.84375 L 33.140625 -55.875 C 33.140625 -57.976562 32.953125 -60.203125 32.578125 -62.546875 C 32.203125 -64.890625 31.46875 -67.082031 30.375 -69.125 C 29.289062 -71.09375 27.742188 -72.707031 25.734375 -73.96875 C 23.734375 -75.226562 21.066406 -75.820312 17.734375 -75.75 C 15.148438 -75.6875 12.941406 -75.125 11.109375 -74.0625 C 9.273438 -73.007812 7.78125 -71.671875 6.625 -70.046875 C 5.46875 -68.347656 4.632812 -66.460938 4.125 -64.390625 C 3.613281 -62.316406 3.359375 -60.257812 3.359375 -58.21875 C 3.359375 -56.175781 3.664062 -54.171875 4.28125 -52.203125 C 5.363281 -48.328125 7.164062 -44.453125 9.6875 -40.578125 C 10.90625 -38.671875 12.09375 -36.867188 13.25 -35.171875 C 14.40625 -33.472656 15.53125 -31.84375 16.625 -30.28125 C 17.164062 -29.53125 17.65625 -28.78125 18.09375 -28.03125 C 18.539062 -27.289062 19 -26.546875 19.46875 -25.796875 C 20.289062 -24.296875 20.972656 -22.847656 21.515625 -21.453125 C 22.054688 -20.066406 22.328125 -18.757812 22.328125 -17.53125 C 22.328125 -15.15625 21.984375 -13.1875 21.296875 -11.625 C 20.617188 -10.0625 19.46875 -9.28125 17.84375 -9.28125 C 16.6875 -9.28125 15.765625 -9.648438 15.078125 -10.390625 C 14.398438 -11.140625 13.894531 -12.128906 13.5625 -13.359375 C 13.15625 -14.515625 12.898438 -15.851562 12.796875 -17.375 C 12.691406 -18.90625 12.640625 -20.453125 12.640625 -22.015625 L 1.828125 -21 C 1.828125 -18.21875 2.015625 -15.515625 2.390625 -12.890625 C 2.765625 -10.273438 3.5 -7.945312 4.59375 -5.90625 C 5.75 -3.875 7.363281 -2.242188 9.4375 -1.015625 C 11.507812 0.199219 14.3125 0.8125 17.84375 0.8125 C 20.832031 0.8125 23.3125 0.285156 25.28125 -0.765625 C 27.25 -1.816406 28.8125 -3.191406 29.96875 -4.890625 C 31.125 -6.660156 31.941406 -8.664062 32.421875 -10.90625 C 32.898438 -13.144531 33.140625 -15.523438 33.140625 -18.046875 C 33.140625 -20.085938 32.832031 -22.078125 32.21875 -24.015625 C 31.601562 -25.953125 30.820312 -27.867188 29.875 -29.765625 C 28.914062 -31.671875 27.828125 -33.570312 26.609375 -35.46875 C 25.390625 -37.375 24.132812 -39.28125 22.84375 -41.1875 C 21.75 -42.75 20.691406 -44.273438 19.671875 -45.765625 C 18.648438 -47.265625 17.734375 -48.726562 16.921875 -50.15625 C 16.109375 -51.582031 15.445312 -52.957031 14.9375 -54.28125 C 14.425781 -55.613281 14.171875 -56.925781 14.171875 -58.21875 C 14.171875 -60.394531 14.441406 -62.160156 14.984375 -63.515625 C 15.523438 -64.878906 16.507812 -65.59375 17.9375 -65.65625 C 18.820312 -65.65625 19.550781 -65.332031 20.125 -64.6875 C 20.707031 -64.039062 21.171875 -63.207031 21.515625 -62.1875 C 21.847656 -61.101562 22.066406 -59.914062 22.171875 -58.625 C 22.273438 -57.332031 22.328125 -56.070312 22.328125 -54.84375 Z M 22.328125 -54.84375 "/></g></g></g><g fill="#f8733d" fill-opacity="1"><g transform="translate(136.555609, 95.490533)"><g/></g></g><g fill="#f8733d" fill-opacity="1"><g transform="translate(160.413657, 95.490533)"><g><path d="M 23.75 0 L 34.765625 0 L 27.734375 -36.296875 C 29.835938 -37.722656 31.378906 -39.984375 32.359375 -43.078125 C 33.347656 -46.171875 33.84375 -49.585938 33.84375 -53.328125 C 33.84375 -60.390625 32.363281 -65.753906 29.40625 -69.421875 C 26.457031 -73.097656 21.6875 -74.9375 15.09375 -74.9375 L 4.078125 -74.9375 L 4.078125 0 L 15.09375 0 L 15.09375 -31.609375 L 18.046875 -31.609375 Z M 15.09375 -41.796875 L 15.09375 -64.03125 C 15.832031 -64.03125 16.675781 -63.960938 17.625 -63.828125 C 18.582031 -63.691406 19.46875 -63.25 20.28125 -62.5 C 21.101562 -61.820312 21.800781 -60.71875 22.375 -59.1875 C 22.957031 -57.65625 23.25 -55.5625 23.25 -52.90625 C 23.25 -50.257812 22.957031 -48.203125 22.375 -46.734375 C 21.800781 -45.273438 21.101562 -44.175781 20.28125 -43.4375 C 19.46875 -42.75 18.582031 -42.300781 17.625 -42.09375 C 16.675781 -41.894531 15.832031 -41.796875 15.09375 -41.796875 Z M 15.09375 -41.796875 "/></g></g></g><g fill="#f8733d" fill-opacity="1"><g transform="translate(205.37669, 95.490533)"><g><path d="M 4.078125 -74.9375 L 4.078125 0 L 29.265625 0 L 29.265625 -11.3125 L 15.09375 -11.3125 L 15.09375 -31.90625 L 25.28125 -31.90625 L 25.28125 -43.9375 L 15.09375 -43.9375 L 15.09375 -63.625 L 29.265625 -63.625 L 29.265625 -74.9375 Z M 4.078125 -74.9375 "/></g></g></g><g fill="#f8733d" fill-opacity="1"><g transform="translate(244.834079, 95.490533)"><g><path d="M 21.71875 -48.015625 L 32.734375 -48.015625 L 32.734375 -59.546875 C 32.585938 -62.597656 31.972656 -65.28125 30.890625 -67.59375 C 30.410156 -68.613281 29.8125 -69.613281 29.09375 -70.59375 C 28.382812 -71.582031 27.519531 -72.453125 26.5 -73.203125 C 25.488281 -73.953125 24.285156 -74.5625 22.890625 -75.03125 C 21.492188 -75.507812 19.878906 -75.75 18.046875 -75.75 C 16.210938 -75.75 14.582031 -75.507812 13.15625 -75.03125 C 11.726562 -74.5625 10.503906 -73.953125 9.484375 -73.203125 C 8.460938 -72.453125 7.609375 -71.582031 6.921875 -70.59375 C 6.242188 -69.613281 5.671875 -68.613281 5.203125 -67.59375 C 4.109375 -65.28125 3.492188 -62.597656 3.359375 -59.546875 L 3.359375 -15.390625 C 3.222656 -12.335938 3.632812 -9.617188 4.59375 -7.234375 C 5 -6.210938 5.523438 -5.226562 6.171875 -4.28125 C 6.816406 -3.332031 7.582031 -2.484375 8.46875 -1.734375 C 9.414062 -0.921875 10.515625 -0.296875 11.765625 0.140625 C 13.023438 0.585938 14.539062 0.8125 16.3125 0.8125 C 18.082031 0.8125 19.695312 0.402344 21.15625 -0.40625 C 22.613281 -1.21875 23.851562 -2.269531 24.875 -3.5625 L 26.203125 0 L 32.734375 0 L 32.734375 -37.3125 L 17.328125 -37.3125 L 17.328125 -28.03125 L 21.71875 -28.03125 L 21.71875 -14.484375 C 21.71875 -13.253906 21.582031 -12.332031 21.3125 -11.71875 C 21.101562 -10.976562 20.742188 -10.332031 20.234375 -9.78125 C 19.722656 -9.238281 18.992188 -8.96875 18.046875 -8.96875 C 17.160156 -8.96875 16.445312 -9.238281 15.90625 -9.78125 C 14.882812 -10.9375 14.375 -12.503906 14.375 -14.484375 L 14.375 -59.546875 C 14.375 -60.628906 14.507812 -61.546875 14.78125 -62.296875 C 14.988281 -62.972656 15.347656 -63.597656 15.859375 -64.171875 C 16.367188 -64.753906 17.097656 -65.046875 18.046875 -65.046875 C 18.992188 -65.046875 19.738281 -64.773438 20.28125 -64.234375 C 21.238281 -63.078125 21.71875 -61.515625 21.71875 -59.546875 Z M 21.71875 -48.015625 "/></g></g></g><g fill="#f8733d" fill-opacity="1"><g transform="translate(289.695125, 95.490533)"><g><path d="M 4.078125 -74.9375 L 4.078125 0 L 15.09375 0 L 15.09375 -74.9375 Z M 4.078125 -74.9375 "/></g></g></g><g fill="#f8733d" fill-opacity="1"><g transform="translate(317.019693, 95.490533)"><g><path d="M 22.328125 -54.84375 L 33.140625 -55.875 C 33.140625 -57.976562 32.953125 -60.203125 32.578125 -62.546875 C 32.203125 -64.890625 31.46875 -67.082031 30.375 -69.125 C 29.289062 -71.09375 27.742188 -72.707031 25.734375 -73.96875 C 23.734375 -75.226562 21.066406 -75.820312 17.734375 -75.75 C 15.148438 -75.6875 12.941406 -75.125 11.109375 -74.0625 C 9.273438 -73.007812 7.78125 -71.671875 6.625 -70.046875 C 5.46875 -68.347656 4.632812 -66.460938 4.125 -64.390625 C 3.613281 -62.316406 3.359375 -60.257812 3.359375 -58.21875 C 3.359375 -56.175781 3.664062 -54.171875 4.28125 -52.203125 C 5.363281 -48.328125 7.164062 -44.453125 9.6875 -40.578125 C 10.90625 -38.671875 12.09375 -36.867188 13.25 -35.171875 C 14.40625 -33.472656 15.53125 -31.84375 16.625 -30.28125 C 17.164062 -29.53125 17.65625 -28.78125 18.09375 -28.03125 C 18.539062 -27.289062 19 -26.546875 19.46875 -25.796875 C 20.289062 -24.296875 20.972656 -22.847656 21.515625 -21.453125 C 22.054688 -20.066406 22.328125 -18.757812 22.328125 -17.53125 C 22.328125 -15.15625 21.984375 -13.1875 21.296875 -11.625 C 20.617188 -10.0625 19.46875 -9.28125 17.84375 -9.28125 C 16.6875 -9.28125 15.765625 -9.648438 15.078125 -10.390625 C 14.398438 -11.140625 13.894531 -12.128906 13.5625 -13.359375 C 13.15625 -14.515625 12.898438 -15.851562 12.796875 -17.375 C 12.691406 -18.90625 12.640625 -20.453125 12.640625 -22.015625 L 1.828125 -21 C 1.828125 -18.21875 2.015625 -15.515625 2.390625 -12.890625 C 2.765625 -10.273438 3.5 -7.945312 4.59375 -5.90625 C 5.75 -3.875 7.363281 -2.242188 9.4375 -1.015625 C 11.507812 0.199219 14.3125 0.8125 17.84375 0.8125 C 20.832031 0.8125 23.3125 0.285156 25.28125 -0.765625 C 27.25 -1.816406 28.8125 -3.191406 29.96875 -4.890625 C 31.125 -6.660156 31.941406 -8.664062 32.421875 -10.90625 C 32.898438 -13.144531 33.140625 -15.523438 33.140625 -18.046875 C 33.140625 -20.085938 32.832031 -22.078125 32.21875 -24.015625 C 31.601562 -25.953125 30.820312 -27.867188 29.875 -29.765625 C 28.914062 -31.671875 27.828125 -33.570312 26.609375 -35.46875 C 25.390625 -37.375 24.132812 -39.28125 22.84375 -41.1875 C 21.75 -42.75 20.691406 -44.273438 19.671875 -45.765625 C 18.648438 -47.265625 17.734375 -48.726562 16.921875 -50.15625 C 16.109375 -51.582031 15.445312 -52.957031 14.9375 -54.28125 C 14.425781 -55.613281 14.171875 -56.925781 14.171875 -58.21875 C 14.171875 -60.394531 14.441406 -62.160156 14.984375 -63.515625 C 15.523438 -64.878906 16.507812 -65.59375 17.9375 -65.65625 C 18.820312 -65.65625 19.550781 -65.332031 20.125 -64.6875 C 20.707031 -64.039062 21.171875 -63.207031 21.515625 -62.1875 C 21.847656 -61.101562 22.066406 -59.914062 22.171875 -58.625 C 22.273438 -57.332031 22.328125 -56.070312 22.328125 -54.84375 Z M 22.328125 -54.84375 "/></g></g></g><g fill="#f8733d" fill-opacity="1"><g transform="translate(360.147495, 95.490533)"><g><path d="M 0.203125 -63.625 L 10.609375 -63.625 L 10.609375 0 L 21.609375 0 L 21.609375 -63.625 L 32.015625 -63.625 L 32.015625 -74.9375 L 0.203125 -74.9375 Z M 0.203125 -63.625 "/></g></g></g><g fill="#f8733d" fill-opacity="1"><g transform="translate(400.522507, 95.490533)"><g><path d="M 23.75 0 L 34.765625 0 L 27.734375 -36.296875 C 29.835938 -37.722656 31.378906 -39.984375 32.359375 -43.078125 C 33.347656 -46.171875 33.84375 -49.585938 33.84375 -53.328125 C 33.84375 -60.390625 32.363281 -65.753906 29.40625 -69.421875 C 26.457031 -73.097656 21.6875 -74.9375 15.09375 -74.9375 L 4.078125 -74.9375 L 4.078125 0 L 15.09375 0 L 15.09375 -31.609375 L 18.046875 -31.609375 Z M 15.09375 -41.796875 L 15.09375 -64.03125 C 15.832031 -64.03125 16.675781 -63.960938 17.625 -63.828125 C 18.582031 -63.691406 19.46875 -63.25 20.28125 -62.5 C 21.101562 -61.820312 21.800781 -60.71875 22.375 -59.1875 C 22.957031 -57.65625 23.25 -55.5625 23.25 -52.90625 C 23.25 -50.257812 22.957031 -48.203125 22.375 -46.734375 C 21.800781 -45.273438 21.101562 -44.175781 20.28125 -43.4375 C 19.46875 -42.75 18.582031 -42.300781 17.625 -42.09375 C 16.675781 -41.894531 15.832031 -41.796875 15.09375 -41.796875 Z M 15.09375 -41.796875 "/></g></g></g><g fill="#f8733d" fill-opacity="1"><g transform="translate(445.485524, 95.490533)"><g><path d="M 1.015625 0 L 11.71875 0 L 13.765625 -15.296875 L 24.359375 -15.296875 L 26.40625 0 L 37.109375 0 L 25.796875 -74.9375 L 12.34375 -74.9375 Z M 19.671875 -50.5625 L 22.84375 -26.921875 L 15.296875 -26.921875 L 18.453125 -50.5625 L 18.765625 -52.5 L 19.375 -52.5 Z M 19.671875 -50.5625 "/></g></g></g><g fill="#f8733d" fill-opacity="1"><g transform="translate(491.773998, 95.490533)"><g><path d="M 22.328125 0 L 27.015625 0 L 34.046875 -47.109375 L 34.453125 -50.265625 L 35.078125 -50.265625 L 35.078125 0 L 45.265625 0 L 45.265625 -74.9375 L 31.8125 -74.9375 L 25.28125 -40.671875 L 24.78125 -36.703125 L 24.578125 -36.703125 L 24.0625 -40.671875 L 17.53125 -74.9375 L 4.078125 -74.9375 L 4.078125 0 L 14.265625 0 L 14.265625 -50.265625 L 14.890625 -50.265625 L 15.296875 -47.109375 Z M 22.328125 0 "/></g></g></g><g fill="#f8733d" fill-opacity="1"><g transform="translate(549.277637, 95.490533)"><g><path d="M 32.734375 -15.390625 L 32.734375 -59.546875 C 32.585938 -62.597656 31.972656 -65.28125 30.890625 -67.59375 C 30.410156 -68.613281 29.8125 -69.613281 29.09375 -70.59375 C 28.382812 -71.582031 27.519531 -72.453125 26.5 -73.203125 C 25.488281 -73.953125 24.285156 -74.5625 22.890625 -75.03125 C 21.492188 -75.507812 19.878906 -75.75 18.046875 -75.75 C 16.210938 -75.75 14.582031 -75.507812 13.15625 -75.03125 C 11.726562 -74.5625 10.503906 -73.953125 9.484375 -73.203125 C 8.460938 -72.453125 7.609375 -71.582031 6.921875 -70.59375 C 6.242188 -69.613281 5.671875 -68.613281 5.203125 -67.59375 C 4.109375 -65.28125 3.492188 -62.597656 3.359375 -59.546875 L 3.359375 -15.390625 C 3.492188 -12.265625 4.109375 -9.546875 5.203125 -7.234375 C 5.671875 -6.210938 6.242188 -5.226562 6.921875 -4.28125 C 7.609375 -3.332031 8.460938 -2.484375 9.484375 -1.734375 C 11.585938 -0.0351562 14.441406 0.8125 18.046875 0.8125 C 21.578125 0.8125 24.394531 -0.0351562 26.5 -1.734375 C 27.519531 -2.484375 28.382812 -3.332031 29.09375 -4.28125 C 29.8125 -5.226562 30.410156 -6.210938 30.890625 -7.234375 C 31.972656 -9.546875 32.585938 -12.265625 32.734375 -15.390625 Z M 21.71875 -59.546875 L 21.71875 -15.390625 C 21.71875 -14.171875 21.582031 -13.253906 21.3125 -12.640625 C 21.101562 -11.890625 20.742188 -11.242188 20.234375 -10.703125 C 19.722656 -10.160156 18.992188 -9.890625 18.046875 -9.890625 C 17.160156 -9.890625 16.445312 -10.160156 15.90625 -10.703125 C 14.882812 -11.859375 14.375 -13.421875 14.375 -15.390625 L 14.375 -59.546875 C 14.375 -60.628906 14.507812 -61.546875 14.78125 -62.296875 C 14.988281 -62.972656 15.347656 -63.597656 15.859375 -64.171875 C 16.367188 -64.753906 17.097656 -65.046875 18.046875 -65.046875 C 18.992188 -65.046875 19.738281 -64.773438 20.28125 -64.234375 C 21.238281 -63.078125 21.71875 -61.515625 21.71875 -59.546875 Z M 21.71875 -59.546875 "/></g></g></g><g fill="#f8733d" fill-opacity="1"><g transform="translate(593.526988, 95.490533)"><g><path d="M 22.328125 -54.84375 L 33.140625 -55.875 C 33.140625 -57.976562 32.953125 -60.203125 32.578125 -62.546875 C 32.203125 -64.890625 31.46875 -67.082031 30.375 -69.125 C 29.289062 -71.09375 27.742188 -72.707031 25.734375 -73.96875 C 23.734375 -75.226562 21.066406 -75.820312 17.734375 -75.75 C 15.148438 -75.6875 12.941406 -75.125 11.109375 -74.0625 C 9.273438 -73.007812 7.78125 -71.671875 6.625 -70.046875 C 5.46875 -68.347656 4.632812 -66.460938 4.125 -64.390625 C 3.613281 -62.316406 3.359375 -60.257812 3.359375 -58.21875 C 3.359375 -56.175781 3.664062 -54.171875 4.28125 -52.203125 C 5.363281 -48.328125 7.164062 -44.453125 9.6875 -40.578125 C 10.90625 -38.671875 12.09375 -36.867188 13.25 -35.171875 C 14.40625 -33.472656 15.53125 -31.84375 16.625 -30.28125 C 17.164062 -29.53125 17.65625 -28.78125 18.09375 -28.03125 C 18.539062 -27.289062 19 -26.546875 19.46875 -25.796875 C 20.289062 -24.296875 20.972656 -22.847656 21.515625 -21.453125 C 22.054688 -20.066406 22.328125 -18.757812 22.328125 -17.53125 C 22.328125 -15.15625 21.984375 -13.1875 21.296875 -11.625 C 20.617188 -10.0625 19.46875 -9.28125 17.84375 -9.28125 C 16.6875 -9.28125 15.765625 -9.648438 15.078125 -10.390625 C 14.398438 -11.140625 13.894531 -12.128906 13.5625 -13.359375 C 13.15625 -14.515625 12.898438 -15.851562 12.796875 -17.375 C 12.691406 -18.90625 12.640625 -20.453125 12.640625 -22.015625 L 1.828125 -21 C 1.828125 -18.21875 2.015625 -15.515625 2.390625 -12.890625 C 2.765625 -10.273438 3.5 -7.945312 4.59375 -5.90625 C 5.75 -3.875 7.363281 -2.242188 9.4375 -1.015625 C 11.507812 0.199219 14.3125 0.8125 17.84375 0.8125 C 20.832031 0.8125 23.3125 0.285156 25.28125 -0.765625 C 27.25 -1.816406 28.8125 -3.191406 29.96875 -4.890625 C 31.125 -6.660156 31.941406 -8.664062 32.421875 -10.90625 C 32.898438 -13.144531 33.140625 -15.523438 33.140625 -18.046875 C 33.140625 -20.085938 32.832031 -22.078125 32.21875 -24.015625 C 31.601562 -25.953125 30.820312 -27.867188 29.875 -29.765625 C 28.914062 -31.671875 27.828125 -33.570312 26.609375 -35.46875 C 25.390625 -37.375 24.132812 -39.28125 22.84375 -41.1875 C 21.75 -42.75 20.691406 -44.273438 19.671875 -45.765625 C 18.648438 -47.265625 17.734375 -48.726562 16.921875 -50.15625 C 16.109375 -51.582031 15.445312 -52.957031 14.9375 -54.28125 C 14.425781 -55.613281 14.171875 -56.925781 14.171875 -58.21875 C 14.171875 -60.394531 14.441406 -62.160156 14.984375 -63.515625 C 15.523438 -64.878906 16.507812 -65.59375 17.9375 -65.65625 C 18.820312 -65.65625 19.550781 -65.332031 20.125 -64.6875 C 20.707031 -64.039062 21.171875 -63.207031 21.515625 -62.1875 C 21.847656 -61.101562 22.066406 -59.914062 22.171875 -58.625 C 22.273438 -57.332031 22.328125 -56.070312 22.328125 -54.84375 Z M 22.328125 -54.84375 "/></g></g></g></g></g></g><g clip-path="url(#4d959979ef)"><g transform="matrix(1, 0, 0, 1, 0, 142)"><g clip-path="url(#16836978f5)"><g fill="#ffffff" fill-opacity="1"><g transform="translate(0.300542, 148.097707)"><g><path d="M 34.46875 -84.671875 L 51.140625 -86.234375 C 51.140625 -89.492188 50.851562 -92.929688 50.28125 -96.546875 C 49.707031 -100.171875 48.578125 -103.554688 46.890625 -106.703125 C 45.210938 -109.742188 42.828125 -112.234375 39.734375 -114.171875 C 36.640625 -116.117188 32.523438 -117.039062 27.390625 -116.9375 C 23.398438 -116.820312 19.988281 -115.953125 17.15625 -114.328125 C 14.320312 -112.703125 12.015625 -110.628906 10.234375 -108.109375 C 8.441406 -105.492188 7.148438 -102.582031 6.359375 -99.375 C 5.578125 -96.175781 5.1875 -93.003906 5.1875 -89.859375 C 5.1875 -86.710938 5.660156 -83.617188 6.609375 -80.578125 C 8.285156 -74.597656 11.066406 -68.617188 14.953125 -62.640625 C 16.835938 -59.703125 18.671875 -56.921875 20.453125 -54.296875 C 22.242188 -51.671875 23.976562 -49.148438 25.65625 -46.734375 C 26.488281 -45.585938 27.242188 -44.4375 27.921875 -43.28125 C 28.609375 -42.125 29.320312 -40.96875 30.0625 -39.8125 C 31.320312 -37.507812 32.367188 -35.28125 33.203125 -33.125 C 34.046875 -30.976562 34.46875 -28.957031 34.46875 -27.0625 C 34.46875 -23.394531 33.941406 -20.351562 32.890625 -17.9375 C 31.835938 -15.53125 30.054688 -14.328125 27.546875 -14.328125 C 25.753906 -14.328125 24.332031 -14.898438 23.28125 -16.046875 C 22.238281 -17.203125 21.457031 -18.722656 20.9375 -20.609375 C 20.300781 -22.398438 19.90625 -24.472656 19.75 -26.828125 C 19.59375 -29.191406 19.515625 -31.582031 19.515625 -34 L 2.828125 -32.421875 C 2.828125 -28.117188 3.113281 -23.945312 3.6875 -19.90625 C 4.269531 -15.863281 5.398438 -12.269531 7.078125 -9.125 C 8.859375 -5.976562 11.347656 -3.457031 14.546875 -1.5625 C 17.753906 0.320312 22.085938 1.265625 27.546875 1.265625 C 32.160156 1.265625 35.988281 0.449219 39.03125 -1.171875 C 42.070312 -2.804688 44.484375 -4.929688 46.265625 -7.546875 C 48.046875 -10.273438 49.300781 -13.367188 50.03125 -16.828125 C 50.769531 -20.296875 51.140625 -23.972656 51.140625 -27.859375 C 51.140625 -31.003906 50.664062 -34.070312 49.71875 -37.0625 C 48.78125 -40.050781 47.578125 -43.015625 46.109375 -45.953125 C 44.640625 -48.890625 42.957031 -51.828125 41.0625 -54.765625 C 39.175781 -57.703125 37.238281 -60.640625 35.25 -63.578125 C 33.570312 -65.992188 31.945312 -68.351562 30.375 -70.65625 C 28.800781 -72.96875 27.382812 -75.222656 26.125 -77.421875 C 24.863281 -79.628906 23.835938 -81.753906 23.046875 -83.796875 C 22.265625 -85.847656 21.875 -87.867188 21.875 -89.859375 C 21.875 -93.210938 22.289062 -95.9375 23.125 -98.03125 C 23.96875 -100.132812 25.492188 -101.238281 27.703125 -101.34375 C 29.066406 -101.34375 30.191406 -100.84375 31.078125 -99.84375 C 31.972656 -98.851562 32.679688 -97.570312 33.203125 -96 C 33.734375 -94.320312 34.078125 -92.484375 34.234375 -90.484375 C 34.390625 -88.492188 34.46875 -86.554688 34.46875 -84.671875 Z M 34.46875 -84.671875 "/></g></g></g><g fill="#ffffff" fill-opacity="1"><g transform="translate(54.27917, 148.097707)"><g><path d="M 6.296875 -115.671875 L 6.296875 0 L 45.171875 0 L 45.171875 -17.46875 L 23.296875 -17.46875 L 23.296875 -49.265625 L 39.03125 -49.265625 L 39.03125 -67.828125 L 23.296875 -67.828125 L 23.296875 -98.203125 L 45.171875 -98.203125 L 45.171875 -115.671875 Z M 6.296875 -115.671875 "/></g></g></g><g fill="#ffffff" fill-opacity="1"><g transform="translate(102.592401, 148.097707)"><g><path d="M 51.46875 -115.671875 L 34.46875 -115.671875 L 34.46875 -23.765625 C 34.46875 -21.878906 34.253906 -20.460938 33.828125 -19.515625 C 33.515625 -18.359375 32.960938 -17.359375 32.171875 -16.515625 C 31.390625 -15.679688 30.265625 -15.265625 28.796875 -15.265625 C 27.429688 -15.265625 26.332031 -15.6875 25.5 -16.53125 C 23.925781 -18.3125 23.140625 -20.722656 23.140625 -23.765625 L 23.140625 -115.671875 L 6.140625 -115.671875 L 6.140625 -23.765625 C 6.347656 -18.941406 7.289062 -14.742188 8.96875 -11.171875 C 9.707031 -9.597656 10.597656 -8.078125 11.640625 -6.609375 C 12.691406 -5.140625 14.003906 -3.828125 15.578125 -2.671875 C 18.828125 -0.046875 23.234375 1.265625 28.796875 1.265625 C 34.253906 1.265625 38.609375 -0.046875 41.859375 -2.671875 C 43.429688 -3.828125 44.769531 -5.140625 45.875 -6.609375 C 46.976562 -8.078125 47.894531 -9.597656 48.625 -11.171875 C 50.300781 -14.742188 51.25 -18.941406 51.46875 -23.765625 Z M 51.46875 -115.671875 "/></g></g></g><g fill="#ffffff" fill-opacity="1"><g transform="translate(160.1906, 148.097707)"><g/></g></g><g fill="#ffffff" fill-opacity="1"><g transform="translate(184.425902, 148.097707)"><g><path d="M 6.296875 -115.671875 L 6.296875 0 L 23.296875 0 L 23.296875 -46.265625 C 26.960938 -46.265625 30.578125 -46.867188 34.140625 -48.078125 C 37.710938 -49.285156 40.914062 -51.203125 43.75 -53.828125 C 46.582031 -56.546875 48.863281 -60.109375 50.59375 -64.515625 C 52.320312 -68.929688 53.1875 -74.441406 53.1875 -81.046875 C 53.1875 -87.660156 52.320312 -93.222656 50.59375 -97.734375 C 48.863281 -102.242188 46.582031 -105.8125 43.75 -108.4375 C 40.914062 -111.15625 37.710938 -113.039062 34.140625 -114.09375 C 30.578125 -115.144531 26.960938 -115.671875 23.296875 -115.671875 Z M 23.296875 -63.578125 L 23.296875 -98.359375 C 28.429688 -98.359375 31.890625 -96.992188 33.671875 -94.265625 C 34.617188 -92.898438 35.25 -91.0625 35.5625 -88.75 C 35.875 -86.445312 36.03125 -83.671875 36.03125 -80.421875 C 36.03125 -77.171875 35.875 -74.46875 35.5625 -72.3125 C 35.25 -70.164062 34.617188 -68.460938 33.671875 -67.203125 C 31.992188 -64.785156 28.535156 -63.578125 23.296875 -63.578125 Z M 23.296875 -63.578125 "/></g></g></g><g fill="#ffffff" fill-opacity="1"><g transform="translate(239.820883, 148.097707)"><g><path d="M 36.671875 0 L 53.671875 0 L 42.8125 -56.03125 C 46.0625 -58.226562 48.445312 -61.710938 49.96875 -66.484375 C 51.488281 -71.265625 52.25 -76.539062 52.25 -82.3125 C 52.25 -93.21875 49.96875 -101.503906 45.40625 -107.171875 C 40.84375 -112.835938 33.472656 -115.671875 23.296875 -115.671875 L 6.296875 -115.671875 L 6.296875 0 L 23.296875 0 L 23.296875 -48.78125 L 27.859375 -48.78125 Z M 23.296875 -64.53125 L 23.296875 -98.828125 C 24.441406 -98.828125 25.75 -98.722656 27.21875 -98.515625 C 28.6875 -98.304688 30.050781 -97.625 31.3125 -96.46875 C 32.570312 -95.414062 33.644531 -93.707031 34.53125 -91.34375 C 35.425781 -88.988281 35.875 -85.765625 35.875 -81.671875 C 35.875 -77.585938 35.425781 -74.414062 34.53125 -72.15625 C 33.644531 -69.894531 32.570312 -68.191406 31.3125 -67.046875 C 30.050781 -65.992188 28.6875 -65.3125 27.21875 -65 C 25.75 -64.6875 24.441406 -64.53125 23.296875 -64.53125 Z M 23.296875 -64.53125 "/></g></g></g><g fill="#ffffff" fill-opacity="1"><g transform="translate(296.632219, 148.097707)"><g><path d="M 50.515625 -23.765625 L 50.515625 -91.90625 C 50.304688 -96.625 49.363281 -100.769531 47.6875 -104.34375 C 46.945312 -105.914062 46.023438 -107.460938 44.921875 -108.984375 C 43.828125 -110.503906 42.492188 -111.84375 40.921875 -113 C 39.347656 -114.144531 37.484375 -115.085938 35.328125 -115.828125 C 33.179688 -116.566406 30.691406 -116.9375 27.859375 -116.9375 C 25.023438 -116.9375 22.503906 -116.566406 20.296875 -115.828125 C 18.097656 -115.085938 16.210938 -114.144531 14.640625 -113 C 13.066406 -111.84375 11.753906 -110.503906 10.703125 -108.984375 C 9.648438 -107.460938 8.757812 -105.914062 8.03125 -104.34375 C 6.351562 -100.769531 5.40625 -96.625 5.1875 -91.90625 L 5.1875 -23.765625 C 5.40625 -18.941406 6.351562 -14.742188 8.03125 -11.171875 C 8.757812 -9.597656 9.648438 -8.078125 10.703125 -6.609375 C 11.753906 -5.140625 13.066406 -3.828125 14.640625 -2.671875 C 17.890625 -0.046875 22.296875 1.265625 27.859375 1.265625 C 33.304688 1.265625 37.660156 -0.046875 40.921875 -2.671875 C 42.492188 -3.828125 43.828125 -5.140625 44.921875 -6.609375 C 46.023438 -8.078125 46.945312 -9.597656 47.6875 -11.171875 C 49.363281 -14.742188 50.304688 -18.941406 50.515625 -23.765625 Z M 33.515625 -91.90625 L 33.515625 -23.765625 C 33.515625 -21.878906 33.304688 -20.460938 32.890625 -19.515625 C 32.578125 -18.359375 32.023438 -17.359375 31.234375 -16.515625 C 30.453125 -15.679688 29.328125 -15.265625 27.859375 -15.265625 C 26.492188 -15.265625 25.390625 -15.6875 24.546875 -16.53125 C 22.972656 -18.3125 22.1875 -20.722656 22.1875 -23.765625 L 22.1875 -91.90625 C 22.1875 -93.582031 22.394531 -95 22.8125 -96.15625 C 23.132812 -97.207031 23.6875 -98.175781 24.46875 -99.0625 C 25.257812 -99.957031 26.390625 -100.40625 27.859375 -100.40625 C 29.328125 -100.40625 30.476562 -99.984375 31.3125 -99.140625 C 32.78125 -97.359375 33.515625 -94.945312 33.515625 -91.90625 Z M 33.515625 -91.90625 "/></g></g></g><g fill="#ffffff" fill-opacity="1"><g transform="translate(352.341929, 148.097707)"><g><path d="M 6.296875 0 L 19.671875 0 C 27.535156 0 33.722656 -0.890625 38.234375 -2.671875 C 42.753906 -4.453125 46.164062 -7.546875 48.46875 -11.953125 C 50.675781 -16.359375 52.066406 -22.257812 52.640625 -29.65625 C 53.210938 -37.0625 53.5 -46.425781 53.5 -57.75 C 53.5 -69.082031 53.210938 -78.472656 52.640625 -85.921875 C 52.066406 -93.367188 50.675781 -99.296875 48.46875 -103.703125 C 46.164062 -108.109375 42.753906 -111.203125 38.234375 -112.984375 C 33.722656 -114.773438 27.535156 -115.671875 19.671875 -115.671875 L 6.296875 -115.671875 Z M 23.296875 -17 L 23.296875 -98.671875 C 26.234375 -98.671875 28.566406 -98.328125 30.296875 -97.640625 C 32.023438 -96.960938 33.3125 -95.257812 34.15625 -92.53125 C 34.570312 -91.164062 34.910156 -89.460938 35.171875 -87.421875 C 35.429688 -85.378906 35.613281 -82.992188 35.71875 -80.265625 C 35.820312 -77.535156 35.875 -74.304688 35.875 -70.578125 C 35.875 -66.859375 35.875 -62.632812 35.875 -57.90625 C 35.875 -53.1875 35.875 -48.960938 35.875 -45.234375 C 35.875 -41.515625 35.820312 -38.289062 35.71875 -35.5625 C 35.613281 -32.832031 35.429688 -30.445312 35.171875 -28.40625 C 34.910156 -26.363281 34.570312 -24.660156 34.15625 -23.296875 C 33.3125 -20.460938 32.023438 -18.703125 30.296875 -18.015625 C 28.566406 -17.335938 26.234375 -17 23.296875 -17 Z M 23.296875 -17 "/></g></g></g><g fill="#ffffff" fill-opacity="1"><g transform="translate(410.884346, 148.097707)"><g><path d="M 51.46875 -115.671875 L 34.46875 -115.671875 L 34.46875 -23.765625 C 34.46875 -21.878906 34.253906 -20.460938 33.828125 -19.515625 C 33.515625 -18.359375 32.960938 -17.359375 32.171875 -16.515625 C 31.390625 -15.679688 30.265625 -15.265625 28.796875 -15.265625 C 27.429688 -15.265625 26.332031 -15.6875 25.5 -16.53125 C 23.925781 -18.3125 23.140625 -20.722656 23.140625 -23.765625 L 23.140625 -115.671875 L 6.140625 -115.671875 L 6.140625 -23.765625 C 6.347656 -18.941406 7.289062 -14.742188 8.96875 -11.171875 C 9.707031 -9.597656 10.597656 -8.078125 11.640625 -6.609375 C 12.691406 -5.140625 14.003906 -3.828125 15.578125 -2.671875 C 18.828125 -0.046875 23.234375 1.265625 28.796875 1.265625 C 34.253906 1.265625 38.609375 -0.046875 41.859375 -2.671875 C 43.429688 -3.828125 44.769531 -5.140625 45.875 -6.609375 C 46.976562 -8.078125 47.894531 -9.597656 48.625 -11.171875 C 50.300781 -14.742188 51.25 -18.941406 51.46875 -23.765625 Z M 51.46875 -115.671875 "/></g></g></g><g fill="#ffffff" fill-opacity="1"><g transform="translate(468.482563, 148.097707)"><g><path d="M 0.3125 -98.203125 L 16.359375 -98.203125 L 16.359375 0 L 33.359375 0 L 33.359375 -98.203125 L 49.421875 -98.203125 L 49.421875 -115.671875 L 0.3125 -115.671875 Z M 0.3125 -98.203125 "/></g></g></g><g fill="#ffffff" fill-opacity="1"><g transform="translate(518.212146, 148.097707)"><g><path d="M 50.515625 -23.765625 L 50.515625 -91.90625 C 50.304688 -96.625 49.363281 -100.769531 47.6875 -104.34375 C 46.945312 -105.914062 46.023438 -107.460938 44.921875 -108.984375 C 43.828125 -110.503906 42.492188 -111.84375 40.921875 -113 C 39.347656 -114.144531 37.484375 -115.085938 35.328125 -115.828125 C 33.179688 -116.566406 30.691406 -116.9375 27.859375 -116.9375 C 25.023438 -116.9375 22.503906 -116.566406 20.296875 -115.828125 C 18.097656 -115.085938 16.210938 -114.144531 14.640625 -113 C 13.066406 -111.84375 11.753906 -110.503906 10.703125 -108.984375 C 9.648438 -107.460938 8.757812 -105.914062 8.03125 -104.34375 C 6.351562 -100.769531 5.40625 -96.625 5.1875 -91.90625 L 5.1875 -23.765625 C 5.40625 -18.941406 6.351562 -14.742188 8.03125 -11.171875 C 8.757812 -9.597656 9.648438 -8.078125 10.703125 -6.609375 C 11.753906 -5.140625 13.066406 -3.828125 14.640625 -2.671875 C 17.890625 -0.046875 22.296875 1.265625 27.859375 1.265625 C 33.304688 1.265625 37.660156 -0.046875 40.921875 -2.671875 C 42.492188 -3.828125 43.828125 -5.140625 44.921875 -6.609375 C 46.023438 -8.078125 46.945312 -9.597656 47.6875 -11.171875 C 49.363281 -14.742188 50.304688 -18.941406 50.515625 -23.765625 Z M 33.515625 -91.90625 L 33.515625 -23.765625 C 33.515625 -21.878906 33.304688 -20.460938 32.890625 -19.515625 C 32.578125 -18.359375 32.023438 -17.359375 31.234375 -16.515625 C 30.453125 -15.679688 29.328125 -15.265625 27.859375 -15.265625 C 26.492188 -15.265625 25.390625 -15.6875 24.546875 -16.53125 C 22.972656 -18.3125 22.1875 -20.722656 22.1875 -23.765625 L 22.1875 -91.90625 C 22.1875 -93.582031 22.394531 -95 22.8125 -96.15625 C 23.132812 -97.207031 23.6875 -98.175781 24.46875 -99.0625 C 25.257812 -99.957031 26.390625 -100.40625 27.859375 -100.40625 C 29.328125 -100.40625 30.476562 -99.984375 31.3125 -99.140625 C 32.78125 -97.359375 33.515625 -94.945312 33.515625 -91.90625 Z M 33.515625 -91.90625 "/></g></g></g><g fill="#ffffff" fill-opacity="1"><g transform="translate(573.927119, 148.097707)"><g><path d="M 19.984375 0 L 19.984375 -17.46875 L 3.46875 -17.46875 L 3.46875 0 L 8.96875 0 L 3.46875 20.453125 L 11.328125 20.453125 Z M 19.984375 0 "/></g></g></g><g fill="#ffffff" fill-opacity="1"><g transform="translate(0.300542, 287.700391)"><g><path d="M 34.46875 -84.671875 L 51.140625 -86.234375 C 51.140625 -89.492188 50.851562 -92.929688 50.28125 -96.546875 C 49.707031 -100.171875 48.578125 -103.554688 46.890625 -106.703125 C 45.210938 -109.742188 42.828125 -112.234375 39.734375 -114.171875 C 36.640625 -116.117188 32.523438 -117.039062 27.390625 -116.9375 C 23.398438 -116.820312 19.988281 -115.953125 17.15625 -114.328125 C 14.320312 -112.703125 12.015625 -110.628906 10.234375 -108.109375 C 8.441406 -105.492188 7.148438 -102.582031 6.359375 -99.375 C 5.578125 -96.175781 5.1875 -93.003906 5.1875 -89.859375 C 5.1875 -86.710938 5.660156 -83.617188 6.609375 -80.578125 C 8.285156 -74.597656 11.066406 -68.617188 14.953125 -62.640625 C 16.835938 -59.703125 18.671875 -56.921875 20.453125 -54.296875 C 22.242188 -51.671875 23.976562 -49.148438 25.65625 -46.734375 C 26.488281 -45.585938 27.242188 -44.4375 27.921875 -43.28125 C 28.609375 -42.125 29.320312 -40.96875 30.0625 -39.8125 C 31.320312 -37.507812 32.367188 -35.28125 33.203125 -33.125 C 34.046875 -30.976562 34.46875 -28.957031 34.46875 -27.0625 C 34.46875 -23.394531 33.941406 -20.351562 32.890625 -17.9375 C 31.835938 -15.53125 30.054688 -14.328125 27.546875 -14.328125 C 25.753906 -14.328125 24.332031 -14.898438 23.28125 -16.046875 C 22.238281 -17.203125 21.457031 -18.722656 20.9375 -20.609375 C 20.300781 -22.398438 19.90625 -24.472656 19.75 -26.828125 C 19.59375 -29.191406 19.515625 -31.582031 19.515625 -34 L 2.828125 -32.421875 C 2.828125 -28.117188 3.113281 -23.945312 3.6875 -19.90625 C 4.269531 -15.863281 5.398438 -12.269531 7.078125 -9.125 C 8.859375 -5.976562 11.347656 -3.457031 14.546875 -1.5625 C 17.753906 0.320312 22.085938 1.265625 27.546875 1.265625 C 32.160156 1.265625 35.988281 0.449219 39.03125 -1.171875 C 42.070312 -2.804688 44.484375 -4.929688 46.265625 -7.546875 C 48.046875 -10.273438 49.300781 -13.367188 50.03125 -16.828125 C 50.769531 -20.296875 51.140625 -23.972656 51.140625 -27.859375 C 51.140625 -31.003906 50.664062 -34.070312 49.71875 -37.0625 C 48.78125 -40.050781 47.578125 -43.015625 46.109375 -45.953125 C 44.640625 -48.890625 42.957031 -51.828125 41.0625 -54.765625 C 39.175781 -57.703125 37.238281 -60.640625 35.25 -63.578125 C 33.570312 -65.992188 31.945312 -68.351562 30.375 -70.65625 C 28.800781 -72.96875 27.382812 -75.222656 26.125 -77.421875 C 24.863281 -79.628906 23.835938 -81.753906 23.046875 -83.796875 C 22.265625 -85.847656 21.875 -87.867188 21.875 -89.859375 C 21.875 -93.210938 22.289062 -95.9375 23.125 -98.03125 C 23.96875 -100.132812 25.492188 -101.238281 27.703125 -101.34375 C 29.066406 -101.34375 30.191406 -100.84375 31.078125 -99.84375 C 31.972656 -98.851562 32.679688 -97.570312 33.203125 -96 C 33.734375 -94.320312 34.078125 -92.484375 34.234375 -90.484375 C 34.390625 -88.492188 34.46875 -86.554688 34.46875 -84.671875 Z M 34.46875 -84.671875 "/></g></g></g><g fill="#ffffff" fill-opacity="1"><g transform="translate(54.27917, 287.700391)"><g><path d="M 6.296875 -115.671875 L 6.296875 0 L 45.171875 0 L 45.171875 -17.46875 L 23.296875 -17.46875 L 23.296875 -49.265625 L 39.03125 -49.265625 L 39.03125 -67.828125 L 23.296875 -67.828125 L 23.296875 -98.203125 L 45.171875 -98.203125 L 45.171875 -115.671875 Z M 6.296875 -115.671875 "/></g></g></g><g fill="#ffffff" fill-opacity="1"><g transform="translate(102.592401, 287.700391)"><g><path d="M 51.46875 -115.671875 L 34.46875 -115.671875 L 34.46875 -23.765625 C 34.46875 -21.878906 34.253906 -20.460938 33.828125 -19.515625 C 33.515625 -18.359375 32.960938 -17.359375 32.171875 -16.515625 C 31.390625 -15.679688 30.265625 -15.265625 28.796875 -15.265625 C 27.429688 -15.265625 26.332031 -15.6875 25.5 -16.53125 C 23.925781 -18.3125 23.140625 -20.722656 23.140625 -23.765625 L 23.140625 -115.671875 L 6.140625 -115.671875 L 6.140625 -23.765625 C 6.347656 -18.941406 7.289062 -14.742188 8.96875 -11.171875 C 9.707031 -9.597656 10.597656 -8.078125 11.640625 -6.609375 C 12.691406 -5.140625 14.003906 -3.828125 15.578125 -2.671875 C 18.828125 -0.046875 23.234375 1.265625 28.796875 1.265625 C 34.253906 1.265625 38.609375 -0.046875 41.859375 -2.671875 C 43.429688 -3.828125 44.769531 -5.140625 45.875 -6.609375 C 46.976562 -8.078125 47.894531 -9.597656 48.625 -11.171875 C 50.300781 -14.742188 51.25 -18.941406 51.46875 -23.765625 Z M 51.46875 -115.671875 "/></g></g></g><g fill="#ffffff" fill-opacity="1"><g transform="translate(160.1906, 287.700391)"><g/></g></g><g fill="#ffffff" fill-opacity="1"><g transform="translate(184.425902, 287.700391)"><g><path d="M 37.140625 -115.671875 L 28.640625 -52.09375 L 28.015625 -47.21875 L 27.0625 -47.21875 L 26.4375 -52.09375 L 17.9375 -115.671875 L 1.421875 -115.671875 L 19.046875 0 L 36.03125 0 L 53.671875 -115.671875 Z M 37.140625 -115.671875 "/></g></g></g><g fill="#ffffff" fill-opacity="1"><g transform="translate(239.506138, 287.700391)"><g><path d="M 1.578125 0 L 18.09375 0 L 21.25 -23.609375 L 37.609375 -23.609375 L 40.765625 0 L 57.28125 0 L 39.8125 -115.671875 L 19.046875 -115.671875 Z M 30.375 -78.0625 L 35.25 -41.546875 L 23.609375 -41.546875 L 28.484375 -78.0625 L 28.953125 -81.046875 L 29.90625 -81.046875 Z M 30.375 -78.0625 "/></g></g></g><g fill="#ffffff" fill-opacity="1"><g transform="translate(298.363301, 287.700391)"><g><path d="M 6.296875 -115.671875 L 6.296875 0 L 45.796875 0 L 45.796875 -15.734375 L 23.296875 -15.734375 L 23.296875 -115.671875 Z M 6.296875 -115.671875 "/></g></g></g><g fill="#ffffff" fill-opacity="1"><g transform="translate(344.788076, 287.700391)"><g><path d="M 50.515625 -23.765625 L 50.515625 -91.90625 C 50.304688 -96.625 49.363281 -100.769531 47.6875 -104.34375 C 46.945312 -105.914062 46.023438 -107.460938 44.921875 -108.984375 C 43.828125 -110.503906 42.492188 -111.84375 40.921875 -113 C 39.347656 -114.144531 37.484375 -115.085938 35.328125 -115.828125 C 33.179688 -116.566406 30.691406 -116.9375 27.859375 -116.9375 C 25.023438 -116.9375 22.503906 -116.566406 20.296875 -115.828125 C 18.097656 -115.085938 16.210938 -114.144531 14.640625 -113 C 13.066406 -111.84375 11.753906 -110.503906 10.703125 -108.984375 C 9.648438 -107.460938 8.757812 -105.914062 8.03125 -104.34375 C 6.351562 -100.769531 5.40625 -96.625 5.1875 -91.90625 L 5.1875 -23.765625 C 5.40625 -18.941406 6.351562 -14.742188 8.03125 -11.171875 C 8.757812 -9.597656 9.648438 -8.078125 10.703125 -6.609375 C 11.753906 -5.140625 13.066406 -3.828125 14.640625 -2.671875 C 17.890625 -0.046875 22.296875 1.265625 27.859375 1.265625 C 33.304688 1.265625 37.660156 -0.046875 40.921875 -2.671875 C 42.492188 -3.828125 43.828125 -5.140625 44.921875 -6.609375 C 46.023438 -8.078125 46.945312 -9.597656 47.6875 -11.171875 C 49.363281 -14.742188 50.304688 -18.941406 50.515625 -23.765625 Z M 33.515625 -91.90625 L 33.515625 -23.765625 C 33.515625 -21.878906 33.304688 -20.460938 32.890625 -19.515625 C 32.578125 -18.359375 32.023438 -17.359375 31.234375 -16.515625 C 30.453125 -15.679688 29.328125 -15.265625 27.859375 -15.265625 C 26.492188 -15.265625 25.390625 -15.6875 24.546875 -16.53125 C 22.972656 -18.3125 22.1875 -20.722656 22.1875 -23.765625 L 22.1875 -91.90625 C 22.1875 -93.582031 22.394531 -95 22.8125 -96.15625 C 23.132812 -97.207031 23.6875 -98.175781 24.46875 -99.0625 C 25.257812 -99.957031 26.390625 -100.40625 27.859375 -100.40625 C 29.328125 -100.40625 30.476562 -99.984375 31.3125 -99.140625 C 32.78125 -97.359375 33.515625 -94.945312 33.515625 -91.90625 Z M 33.515625 -91.90625 "/></g></g></g><g fill="#ffffff" fill-opacity="1"><g transform="translate(400.497785, 287.700391)"><g><path d="M 36.671875 0 L 53.671875 0 L 42.8125 -56.03125 C 46.0625 -58.226562 48.445312 -61.710938 49.96875 -66.484375 C 51.488281 -71.265625 52.25 -76.539062 52.25 -82.3125 C 52.25 -93.21875 49.96875 -101.503906 45.40625 -107.171875 C 40.84375 -112.835938 33.472656 -115.671875 23.296875 -115.671875 L 6.296875 -115.671875 L 6.296875 0 L 23.296875 0 L 23.296875 -48.78125 L 27.859375 -48.78125 Z M 23.296875 -64.53125 L 23.296875 -98.828125 C 24.441406 -98.828125 25.75 -98.722656 27.21875 -98.515625 C 28.6875 -98.304688 30.050781 -97.625 31.3125 -96.46875 C 32.570312 -95.414062 33.644531 -93.707031 34.53125 -91.34375 C 35.425781 -88.988281 35.875 -85.765625 35.875 -81.671875 C 35.875 -77.585938 35.425781 -74.414062 34.53125 -72.15625 C 33.644531 -69.894531 32.570312 -68.191406 31.3125 -67.046875 C 30.050781 -65.992188 28.6875 -65.3125 27.21875 -65 C 25.75 -64.6875 24.441406 -64.53125 23.296875 -64.53125 Z M 23.296875 -64.53125 "/></g></g></g><g fill="#ffffff" fill-opacity="1"><g transform="translate(457.309121, 287.700391)"><g/></g></g><g fill="#ffffff" fill-opacity="1"><g transform="translate(481.54444, 287.700391)"><g><path d="M 6.296875 -115.671875 L 6.296875 0 L 45.171875 0 L 45.171875 -17.46875 L 23.296875 -17.46875 L 23.296875 -49.265625 L 39.03125 -49.265625 L 39.03125 -67.828125 L 23.296875 -67.828125 L 23.296875 -98.203125 L 45.171875 -98.203125 L 45.171875 -115.671875 Z M 6.296875 -115.671875 "/></g></g></g><g fill="#ffffff" fill-opacity="1"><g transform="translate(0.300542, 427.303075)"><g><path d="M 34.46875 -84.671875 L 51.140625 -86.234375 C 51.140625 -89.492188 50.851562 -92.929688 50.28125 -96.546875 C 49.707031 -100.171875 48.578125 -103.554688 46.890625 -106.703125 C 45.210938 -109.742188 42.828125 -112.234375 39.734375 -114.171875 C 36.640625 -116.117188 32.523438 -117.039062 27.390625 -116.9375 C 23.398438 -116.820312 19.988281 -115.953125 17.15625 -114.328125 C 14.320312 -112.703125 12.015625 -110.628906 10.234375 -108.109375 C 8.441406 -105.492188 7.148438 -102.582031 6.359375 -99.375 C 5.578125 -96.175781 5.1875 -93.003906 5.1875 -89.859375 C 5.1875 -86.710938 5.660156 -83.617188 6.609375 -80.578125 C 8.285156 -74.597656 11.066406 -68.617188 14.953125 -62.640625 C 16.835938 -59.703125 18.671875 -56.921875 20.453125 -54.296875 C 22.242188 -51.671875 23.976562 -49.148438 25.65625 -46.734375 C 26.488281 -45.585938 27.242188 -44.4375 27.921875 -43.28125 C 28.609375 -42.125 29.320312 -40.96875 30.0625 -39.8125 C 31.320312 -37.507812 32.367188 -35.28125 33.203125 -33.125 C 34.046875 -30.976562 34.46875 -28.957031 34.46875 -27.0625 C 34.46875 -23.394531 33.941406 -20.351562 32.890625 -17.9375 C 31.835938 -15.53125 30.054688 -14.328125 27.546875 -14.328125 C 25.753906 -14.328125 24.332031 -14.898438 23.28125 -16.046875 C 22.238281 -17.203125 21.457031 -18.722656 20.9375 -20.609375 C 20.300781 -22.398438 19.90625 -24.472656 19.75 -26.828125 C 19.59375 -29.191406 19.515625 -31.582031 19.515625 -34 L 2.828125 -32.421875 C 2.828125 -28.117188 3.113281 -23.945312 3.6875 -19.90625 C 4.269531 -15.863281 5.398438 -12.269531 7.078125 -9.125 C 8.859375 -5.976562 11.347656 -3.457031 14.546875 -1.5625 C 17.753906 0.320312 22.085938 1.265625 27.546875 1.265625 C 32.160156 1.265625 35.988281 0.449219 39.03125 -1.171875 C 42.070312 -2.804688 44.484375 -4.929688 46.265625 -7.546875 C 48.046875 -10.273438 49.300781 -13.367188 50.03125 -16.828125 C 50.769531 -20.296875 51.140625 -23.972656 51.140625 -27.859375 C 51.140625 -31.003906 50.664062 -34.070312 49.71875 -37.0625 C 48.78125 -40.050781 47.578125 -43.015625 46.109375 -45.953125 C 44.640625 -48.890625 42.957031 -51.828125 41.0625 -54.765625 C 39.175781 -57.703125 37.238281 -60.640625 35.25 -63.578125 C 33.570312 -65.992188 31.945312 -68.351562 30.375 -70.65625 C 28.800781 -72.96875 27.382812 -75.222656 26.125 -77.421875 C 24.863281 -79.628906 23.835938 -81.753906 23.046875 -83.796875 C 22.265625 -85.847656 21.875 -87.867188 21.875 -89.859375 C 21.875 -93.210938 22.289062 -95.9375 23.125 -98.03125 C 23.96875 -100.132812 25.492188 -101.238281 27.703125 -101.34375 C 29.066406 -101.34375 30.191406 -100.84375 31.078125 -99.84375 C 31.972656 -98.851562 32.679688 -97.570312 33.203125 -96 C 33.734375 -94.320312 34.078125 -92.484375 34.234375 -90.484375 C 34.390625 -88.492188 34.46875 -86.554688 34.46875 -84.671875 Z M 34.46875 -84.671875 "/></g></g></g><g fill="#ffffff" fill-opacity="1"><g transform="translate(54.27917, 427.303075)"><g><path d="M 51.46875 -115.671875 L 34.46875 -115.671875 L 34.46875 -23.765625 C 34.46875 -21.878906 34.253906 -20.460938 33.828125 -19.515625 C 33.515625 -18.359375 32.960938 -17.359375 32.171875 -16.515625 C 31.390625 -15.679688 30.265625 -15.265625 28.796875 -15.265625 C 27.429688 -15.265625 26.332031 -15.6875 25.5 -16.53125 C 23.925781 -18.3125 23.140625 -20.722656 23.140625 -23.765625 L 23.140625 -115.671875 L 6.140625 -115.671875 L 6.140625 -23.765625 C 6.347656 -18.941406 7.289062 -14.742188 8.96875 -11.171875 C 9.707031 -9.597656 10.597656 -8.078125 11.640625 -6.609375 C 12.691406 -5.140625 14.003906 -3.828125 15.578125 -2.671875 C 18.828125 -0.046875 23.234375 1.265625 28.796875 1.265625 C 34.253906 1.265625 38.609375 -0.046875 41.859375 -2.671875 C 43.429688 -3.828125 44.769531 -5.140625 45.875 -6.609375 C 46.976562 -8.078125 47.894531 -9.597656 48.625 -11.171875 C 50.300781 -14.742188 51.25 -18.941406 51.46875 -23.765625 Z M 51.46875 -115.671875 "/></g></g></g><g fill="#ffffff" fill-opacity="1"><g transform="translate(111.877369, 427.303075)"><g><path d="M 1.578125 0 L 18.09375 0 L 21.25 -23.609375 L 37.609375 -23.609375 L 40.765625 0 L 57.28125 0 L 39.8125 -115.671875 L 19.046875 -115.671875 Z M 30.375 -78.0625 L 35.25 -41.546875 L 23.609375 -41.546875 L 28.484375 -78.0625 L 28.953125 -81.046875 L 29.90625 -81.046875 Z M 30.375 -78.0625 "/></g></g></g><g fill="#ffffff" fill-opacity="1"><g transform="translate(0.300542, 566.905759)"><g><path d="M 6.296875 -115.671875 L 6.296875 0 L 23.296875 0 L 23.296875 -46.265625 C 26.960938 -46.265625 30.578125 -46.867188 34.140625 -48.078125 C 37.710938 -49.285156 40.914062 -51.203125 43.75 -53.828125 C 46.582031 -56.546875 48.863281 -60.109375 50.59375 -64.515625 C 52.320312 -68.929688 53.1875 -74.441406 53.1875 -81.046875 C 53.1875 -87.660156 52.320312 -93.222656 50.59375 -97.734375 C 48.863281 -102.242188 46.582031 -105.8125 43.75 -108.4375 C 40.914062 -111.15625 37.710938 -113.039062 34.140625 -114.09375 C 30.578125 -115.144531 26.960938 -115.671875 23.296875 -115.671875 Z M 23.296875 -63.578125 L 23.296875 -98.359375 C 28.429688 -98.359375 31.890625 -96.992188 33.671875 -94.265625 C 34.617188 -92.898438 35.25 -91.0625 35.5625 -88.75 C 35.875 -86.445312 36.03125 -83.671875 36.03125 -80.421875 C 36.03125 -77.171875 35.875 -74.46875 35.5625 -72.3125 C 35.25 -70.164062 34.617188 -68.460938 33.671875 -67.203125 C 31.992188 -64.785156 28.535156 -63.578125 23.296875 -63.578125 Z M 23.296875 -63.578125 "/></g></g></g><g fill="#ffffff" fill-opacity="1"><g transform="translate(55.695523, 566.905759)"><g><path d="M 36.671875 0 L 53.671875 0 L 42.8125 -56.03125 C 46.0625 -58.226562 48.445312 -61.710938 49.96875 -66.484375 C 51.488281 -71.265625 52.25 -76.539062 52.25 -82.3125 C 52.25 -93.21875 49.96875 -101.503906 45.40625 -107.171875 C 40.84375 -112.835938 33.472656 -115.671875 23.296875 -115.671875 L 6.296875 -115.671875 L 6.296875 0 L 23.296875 0 L 23.296875 -48.78125 L 27.859375 -48.78125 Z M 23.296875 -64.53125 L 23.296875 -98.828125 C 24.441406 -98.828125 25.75 -98.722656 27.21875 -98.515625 C 28.6875 -98.304688 30.050781 -97.625 31.3125 -96.46875 C 32.570312 -95.414062 33.644531 -93.707031 34.53125 -91.34375 C 35.425781 -88.988281 35.875 -85.765625 35.875 -81.671875 C 35.875 -77.585938 35.425781 -74.414062 34.53125 -72.15625 C 33.644531 -69.894531 32.570312 -68.191406 31.3125 -67.046875 C 30.050781 -65.992188 28.6875 -65.3125 27.21875 -65 C 25.75 -64.6875 24.441406 -64.53125 23.296875 -64.53125 Z M 23.296875 -64.53125 "/></g></g></g><g fill="#ffffff" fill-opacity="1"><g transform="translate(112.50686, 566.905759)"><g><path d="M 46.578125 -140.0625 L 30.0625 -140.0625 L 21.875 -125.90625 L 34.15625 -125.90625 Z M 50.515625 -23.765625 L 50.515625 -91.90625 C 50.304688 -96.625 49.363281 -100.769531 47.6875 -104.34375 C 46.945312 -105.914062 46.023438 -107.460938 44.921875 -108.984375 C 43.828125 -110.503906 42.492188 -111.84375 40.921875 -113 C 39.347656 -114.144531 37.484375 -115.085938 35.328125 -115.828125 C 33.179688 -116.566406 30.691406 -116.9375 27.859375 -116.9375 C 25.023438 -116.9375 22.503906 -116.566406 20.296875 -115.828125 C 18.097656 -115.085938 16.210938 -114.144531 14.640625 -113 C 13.066406 -111.84375 11.753906 -110.503906 10.703125 -108.984375 C 9.648438 -107.460938 8.757812 -105.914062 8.03125 -104.34375 C 6.351562 -100.769531 5.40625 -96.625 5.1875 -91.90625 L 5.1875 -23.765625 C 5.40625 -18.941406 6.351562 -14.742188 8.03125 -11.171875 C 8.757812 -9.597656 9.648438 -8.078125 10.703125 -6.609375 C 11.753906 -5.140625 13.066406 -3.828125 14.640625 -2.671875 C 17.890625 -0.046875 22.296875 1.265625 27.859375 1.265625 C 33.304688 1.265625 37.660156 -0.046875 40.921875 -2.671875 C 42.492188 -3.828125 43.828125 -5.140625 44.921875 -6.609375 C 46.023438 -8.078125 46.945312 -9.597656 47.6875 -11.171875 C 49.363281 -14.742188 50.304688 -18.941406 50.515625 -23.765625 Z M 33.515625 -91.90625 L 33.515625 -23.765625 C 33.515625 -21.878906 33.304688 -20.460938 32.890625 -19.515625 C 32.578125 -18.359375 32.023438 -17.359375 31.234375 -16.515625 C 30.453125 -15.679688 29.328125 -15.265625 27.859375 -15.265625 C 26.492188 -15.265625 25.390625 -15.6875 24.546875 -16.53125 C 22.972656 -18.3125 22.1875 -20.722656 22.1875 -23.765625 L 22.1875 -91.90625 C 22.1875 -93.582031 22.394531 -95 22.8125 -96.15625 C 23.132812 -97.207031 23.6875 -98.175781 24.46875 -99.0625 C 25.257812 -99.957031 26.390625 -100.40625 27.859375 -100.40625 C 29.328125 -100.40625 30.476562 -99.984375 31.3125 -99.140625 C 32.78125 -97.359375 33.515625 -94.945312 33.515625 -91.90625 Z M 33.515625 -91.90625 "/></g></g></g><g fill="#ffffff" fill-opacity="1"><g transform="translate(168.216586, 566.905759)"><g><path d="M 17.9375 0 L 27.703125 -34.46875 L 28.015625 -35.875 L 28.640625 -35.875 L 28.953125 -34.46875 L 38.71875 0 L 55.390625 0 L 36.671875 -60.75 L 55.078125 -115.671875 L 38.40625 -115.671875 L 29.109375 -86.40625 L 28.640625 -84.984375 L 28.015625 -84.984375 L 27.546875 -86.40625 L 18.25 -115.671875 L 1.578125 -115.671875 L 19.984375 -60.75 L 1.265625 0 Z M 17.9375 0 "/></g></g></g><g fill="#ffffff" fill-opacity="1"><g transform="translate(224.870549, 566.905759)"><g><path d="M 6.296875 -115.671875 L 6.296875 0 L 23.296875 0 L 23.296875 -115.671875 Z M 6.296875 -115.671875 "/></g></g></g><g fill="#ffffff" fill-opacity="1"><g transform="translate(254.456503, 566.905759)"><g><path d="M 34.46875 0 L 41.703125 0 L 52.5625 -72.703125 L 53.1875 -77.578125 L 54.140625 -77.578125 L 54.140625 0 L 69.875 0 L 69.875 -115.671875 L 49.09375 -115.671875 L 39.03125 -62.796875 L 38.234375 -56.65625 L 37.921875 -56.65625 L 37.140625 -62.796875 L 27.0625 -115.671875 L 6.296875 -115.671875 L 6.296875 0 L 22.03125 0 L 22.03125 -77.578125 L 22.984375 -77.578125 L 23.609375 -72.703125 Z M 34.46875 0 "/></g></g></g><g fill="#ffffff" fill-opacity="1"><g transform="translate(330.624605, 566.905759)"><g><path d="M 1.578125 0 L 18.09375 0 L 21.25 -23.609375 L 37.609375 -23.609375 L 40.765625 0 L 57.28125 0 L 39.8125 -115.671875 L 19.046875 -115.671875 Z M 30.375 -78.0625 L 35.25 -41.546875 L 23.609375 -41.546875 L 28.484375 -78.0625 L 28.953125 -81.046875 L 29.90625 -81.046875 Z M 30.375 -78.0625 "/></g></g></g><g fill="#ffffff" fill-opacity="1"><g transform="translate(0.300542, 706.508443)"><g><path d="M 37.140625 -115.671875 L 28.640625 -52.09375 L 28.015625 -47.21875 L 27.0625 -47.21875 L 26.4375 -52.09375 L 17.9375 -115.671875 L 1.421875 -115.671875 L 19.046875 0 L 36.03125 0 L 53.671875 -115.671875 Z M 37.140625 -115.671875 "/></g></g></g><g fill="#ffffff" fill-opacity="1"><g transform="translate(55.380778, 706.508443)"><g><path d="M 6.296875 -115.671875 L 6.296875 0 L 45.171875 0 L 45.171875 -17.46875 L 23.296875 -17.46875 L 23.296875 -49.265625 L 39.03125 -49.265625 L 39.03125 -67.828125 L 23.296875 -67.828125 L 23.296875 -98.203125 L 45.171875 -98.203125 L 45.171875 -115.671875 Z M 6.296875 -115.671875 "/></g></g></g><g fill="#ffffff" fill-opacity="1"><g transform="translate(103.694009, 706.508443)"><g><path d="M 24.234375 -60.28125 L 40.765625 0 L 55.875 0 L 55.875 -115.671875 L 40.28125 -115.671875 L 40.28125 -50.046875 L 39.34375 -50.046875 L 37.921875 -55.390625 L 21.40625 -115.671875 L 6.296875 -115.671875 L 6.296875 0 L 21.875 0 L 21.875 -65.625 L 22.8125 -65.625 Z M 24.234375 -60.28125 "/></g></g></g><g fill="#ffffff" fill-opacity="1"><g transform="translate(165.855997, 706.508443)"><g><path d="M 6.296875 0 L 19.671875 0 C 27.535156 0 33.722656 -0.890625 38.234375 -2.671875 C 42.753906 -4.453125 46.164062 -7.546875 48.46875 -11.953125 C 50.675781 -16.359375 52.066406 -22.257812 52.640625 -29.65625 C 53.210938 -37.0625 53.5 -46.425781 53.5 -57.75 C 53.5 -69.082031 53.210938 -78.472656 52.640625 -85.921875 C 52.066406 -93.367188 50.675781 -99.296875 48.46875 -103.703125 C 46.164062 -108.109375 42.753906 -111.203125 38.234375 -112.984375 C 33.722656 -114.773438 27.535156 -115.671875 19.671875 -115.671875 L 6.296875 -115.671875 Z M 23.296875 -17 L 23.296875 -98.671875 C 26.234375 -98.671875 28.566406 -98.328125 30.296875 -97.640625 C 32.023438 -96.960938 33.3125 -95.257812 34.15625 -92.53125 C 34.570312 -91.164062 34.910156 -89.460938 35.171875 -87.421875 C 35.429688 -85.378906 35.613281 -82.992188 35.71875 -80.265625 C 35.820312 -77.535156 35.875 -74.304688 35.875 -70.578125 C 35.875 -66.859375 35.875 -62.632812 35.875 -57.90625 C 35.875 -53.1875 35.875 -48.960938 35.875 -45.234375 C 35.875 -41.515625 35.820312 -38.289062 35.71875 -35.5625 C 35.613281 -32.832031 35.429688 -30.445312 35.171875 -28.40625 C 34.910156 -26.363281 34.570312 -24.660156 34.15625 -23.296875 C 33.3125 -20.460938 32.023438 -18.703125 30.296875 -18.015625 C 28.566406 -17.335938 26.234375 -17 23.296875 -17 Z M 23.296875 -17 "/></g></g></g><g fill="#ffffff" fill-opacity="1"><g transform="translate(224.398414, 706.508443)"><g><path d="M 1.578125 0 L 18.09375 0 L 21.25 -23.609375 L 37.609375 -23.609375 L 40.765625 0 L 57.28125 0 L 39.8125 -115.671875 L 19.046875 -115.671875 Z M 30.375 -78.0625 L 35.25 -41.546875 L 23.609375 -41.546875 L 28.484375 -78.0625 L 28.953125 -81.046875 L 29.90625 -81.046875 Z M 30.375 -78.0625 "/></g></g></g><g fill="#ffffff" fill-opacity="1"><g transform="translate(283.255576, 706.508443)"><g><path d="M 5.671875 -115.671875 L 9.921875 -31.15625 L 19.828125 -31.15625 L 24.078125 -115.671875 Z M 6.609375 -17.46875 L 6.609375 0 L 23.140625 0 L 23.140625 -17.46875 Z M 6.609375 -17.46875 "/></g></g></g></g></g></g></g></g></svg>